<svg width="61" height="73" viewBox="0 0 61 73" fill="none" xmlns="http://www.w3.org/2000/svg">
<path d="M3.55604 0.565892H56.7236C57.665 0.565892 58.4267 1.33192 58.4213 2.27332L58.1103 56.4173C58.1067 57.0393 57.7632 57.6096 57.215 57.9036L31.0834 71.9177C30.5746 72.1905 29.9621 72.1861 29.4573 71.9061L3.04298 57.2498C2.50667 56.9522 2.17257 56.3885 2.16901 55.7752L1.8584 2.27342C1.85293 1.33199 2.61459 0.565892 3.55604 0.565892Z" fill="white" stroke="#DCE5FF" stroke-width="1.13178"/>
<path d="M21.9798 27.979V21.3941H24.6164C25.1008 21.3941 25.5049 21.4659 25.8285 21.6095C26.1522 21.7531 26.3955 21.9525 26.5584 22.2076C26.7213 22.4605 26.8028 22.752 26.8028 23.0821C26.8028 23.3393 26.7513 23.5655 26.6484 23.7605C26.5456 23.9535 26.4041 24.1121 26.224 24.2364C26.0461 24.3586 25.8425 24.4454 25.6131 24.4968V24.5611C25.8639 24.5719 26.0986 24.6426 26.3173 24.7734C26.5381 24.9041 26.717 25.0874 26.8542 25.3232C26.9914 25.5568 27.06 25.8355 27.06 26.1591C27.06 26.5085 26.9732 26.8204 26.7996 27.0948C26.6281 27.367 26.3741 27.5825 26.0375 27.7411C25.701 27.8997 25.2862 27.979 24.7932 27.979H21.9798ZM23.3721 26.8408H24.5071C24.895 26.8408 25.178 26.7668 25.3559 26.6189C25.5338 26.4689 25.6228 26.2695 25.6228 26.0209C25.6228 25.8387 25.5788 25.6779 25.4909 25.5386C25.4031 25.3993 25.2777 25.2899 25.1148 25.2106C24.954 25.1313 24.7621 25.0917 24.5392 25.0917H23.3721V26.8408ZM23.3721 24.1496H24.4042C24.5949 24.1496 24.7643 24.1164 24.9122 24.0499C25.0622 23.9813 25.1801 23.8849 25.2659 23.7605C25.3538 23.6362 25.3977 23.4872 25.3977 23.3136C25.3977 23.0757 25.313 22.8838 25.1437 22.7381C24.9765 22.5923 24.7386 22.5194 24.4299 22.5194H23.3721V24.1496ZM30.1909 28.0755C29.6829 28.0755 29.2456 27.9726 28.8791 27.7668C28.5147 27.5589 28.2339 27.2652 28.0367 26.8858C27.8394 26.5043 27.7408 26.053 27.7408 25.5322C27.7408 25.0241 27.8394 24.5783 28.0367 24.1946C28.2339 23.8109 28.5114 23.5119 28.8694 23.2975C29.2295 23.0832 29.6518 22.976 30.1362 22.976C30.4621 22.976 30.7654 23.0285 31.0462 23.1336C31.3291 23.2364 31.5756 23.3919 31.7857 23.5998C31.9979 23.8077 32.1629 24.0692 32.2808 24.3843C32.3987 24.6973 32.4577 25.0638 32.4577 25.4839V25.8601H28.2874V25.0113H31.1683C31.1683 24.8141 31.1255 24.6394 31.0397 24.4872C30.954 24.335 30.835 24.216 30.6828 24.1303C30.5328 24.0424 30.3581 23.9985 30.1587 23.9985C29.9508 23.9985 29.7665 24.0467 29.6057 24.1432C29.4471 24.2375 29.3228 24.365 29.2327 24.5258C29.1427 24.6844 29.0966 24.8612 29.0945 25.0563V25.8633C29.0945 26.1077 29.1395 26.3188 29.2295 26.4968C29.3217 26.6747 29.4514 26.8119 29.6186 26.9083C29.7858 27.0048 29.984 27.053 30.2134 27.053C30.3656 27.053 30.5049 27.0316 30.6314 26.9887C30.7579 26.9458 30.8661 26.8815 30.9561 26.7958C31.0462 26.71 31.1148 26.605 31.1619 26.4807L32.4287 26.5643C32.3644 26.8687 32.2326 27.1345 32.0333 27.3617C31.8361 27.5867 31.581 27.7625 31.268 27.889C30.9572 28.0133 30.5982 28.0755 30.1909 28.0755ZM37.4607 24.4486L36.2067 24.5258C36.1853 24.4186 36.1392 24.3221 36.0685 24.2364C35.9977 24.1485 35.9045 24.0789 35.7887 24.0274C35.6751 23.9738 35.539 23.947 35.3804 23.947C35.1682 23.947 34.9892 23.992 34.8434 24.0821C34.6977 24.17 34.6248 24.2878 34.6248 24.4358C34.6248 24.5536 34.6719 24.6533 34.7663 24.7348C34.8606 24.8162 35.0224 24.8816 35.2518 24.9309L36.1456 25.111C36.6258 25.2096 36.9837 25.3682 37.2195 25.5868C37.4553 25.8055 37.5732 26.0927 37.5732 26.4485C37.5732 26.7722 37.4778 27.0562 37.287 27.3006C37.0984 27.5449 36.8391 27.7357 36.5089 27.8729C36.181 28.0079 35.8027 28.0755 35.374 28.0755C34.7202 28.0755 34.1993 27.9393 33.8113 27.6671C33.4255 27.3927 33.1993 27.0198 33.1329 26.5482L34.4801 26.4775C34.5208 26.6768 34.6194 26.829 34.7759 26.934C34.9324 27.0369 35.1328 27.0884 35.3772 27.0884C35.6172 27.0884 35.8102 27.0423 35.9559 26.9501C36.1038 26.8558 36.1788 26.7347 36.181 26.5868C36.1788 26.4625 36.1263 26.3606 36.0234 26.2813C35.9206 26.1999 35.7619 26.1377 35.5476 26.0948L34.6923 25.9244C34.21 25.828 33.851 25.6608 33.6152 25.4228C33.3815 25.1849 33.2647 24.8816 33.2647 24.5129C33.2647 24.1957 33.3505 23.9224 33.5219 23.693C33.6956 23.4637 33.9389 23.2868 34.2518 23.1625C34.5669 23.0382 34.9356 22.976 35.3579 22.976C35.9816 22.976 36.4725 23.1078 36.8305 23.3715C37.1906 23.6351 37.4007 23.9942 37.4607 24.4486ZM41.0626 23.0403V24.0692H38.0885V23.0403H41.0626ZM38.7637 21.8571H40.1334V26.4614C40.1334 26.5879 40.1527 26.6865 40.1913 26.7572C40.2298 26.8258 40.2834 26.874 40.352 26.9019C40.4228 26.9297 40.5042 26.9437 40.5964 26.9437C40.6607 26.9437 40.725 26.9383 40.7893 26.9276C40.8536 26.9147 40.9029 26.9051 40.9372 26.8987L41.1526 27.9179C41.084 27.9393 40.9876 27.964 40.8633 27.9919C40.7389 28.0219 40.5878 28.0401 40.4099 28.0465C40.0798 28.0594 39.7904 28.0154 39.5418 27.9147C39.2953 27.814 39.1034 27.6575 38.9662 27.4453C38.829 27.2331 38.7615 26.9651 38.7637 26.6414V21.8571ZM22.1884 33.6994H20.7801C20.7544 33.5172 20.7019 33.3554 20.6226 33.2139C20.5433 33.0703 20.4415 32.9481 20.3171 32.8474C20.1928 32.7467 20.0492 32.6695 19.8863 32.6159C19.7255 32.5623 19.5508 32.5355 19.3622 32.5355C19.0214 32.5355 18.7245 32.6202 18.4716 32.7895C18.2186 32.9567 18.0225 33.2011 17.8832 33.5226C17.7438 33.842 17.6742 34.23 17.6742 34.6865C17.6742 35.156 17.7438 35.5504 17.8832 35.8698C18.0246 36.1892 18.2218 36.4303 18.4748 36.5932C18.7277 36.7561 19.0203 36.8376 19.3525 36.8376C19.539 36.8376 19.7116 36.8129 19.8702 36.7636C20.031 36.7143 20.1735 36.6425 20.2978 36.5482C20.4222 36.4517 20.5251 36.3349 20.6065 36.1977C20.6901 36.0605 20.748 35.9041 20.7801 35.7283L22.1884 35.7347C22.152 36.037 22.0609 36.3285 21.9151 36.6093C21.7715 36.8879 21.5775 37.1377 21.3332 37.3585C21.091 37.5771 20.8016 37.7507 20.465 37.8793C20.1306 38.0058 19.7523 38.069 19.33 38.069C18.7427 38.069 18.2176 37.9361 17.7545 37.6703C17.2937 37.4045 16.9293 37.0198 16.6613 36.516C16.3956 36.0123 16.2627 35.4025 16.2627 34.6865C16.2627 33.9685 16.3977 33.3576 16.6678 32.8538C16.9379 32.3501 17.3044 31.9664 17.7674 31.7028C18.2304 31.437 18.7513 31.3041 19.33 31.3041C19.7116 31.3041 20.0653 31.3576 20.3911 31.4648C20.719 31.572 21.0095 31.7285 21.2624 31.9343C21.5154 32.1379 21.7211 32.3876 21.8798 32.6834C22.0405 32.9792 22.1434 33.3179 22.1884 33.6994ZM24.5308 35.1238V37.979H23.1611V31.3941H24.4922V33.9117H24.5501C24.6615 33.6201 24.8416 33.3919 25.0902 33.2268C25.3389 33.0596 25.6508 32.976 26.0259 32.976C26.3689 32.976 26.6679 33.051 26.923 33.2011C27.1802 33.349 27.3795 33.5623 27.521 33.8409C27.6646 34.1174 27.7354 34.4486 27.7332 34.8344V37.979H26.3635V35.0788C26.3656 34.7744 26.2885 34.5376 26.132 34.3682C25.9777 34.1989 25.7612 34.1142 25.4825 34.1142C25.296 34.1142 25.131 34.1539 24.9873 34.2332C24.8459 34.3125 24.7344 34.4282 24.653 34.5804C24.5736 34.7305 24.5329 34.9116 24.5308 35.1238ZM31.0425 38.0755C30.5431 38.0755 30.1112 37.9694 29.7468 37.7571C29.3845 37.5428 29.1048 37.2448 28.9076 36.8633C28.7104 36.4796 28.6118 36.0348 28.6118 35.529C28.6118 35.0188 28.7104 34.5729 28.9076 34.1914C29.1048 33.8077 29.3845 33.5097 29.7468 33.2975C30.1112 33.0832 30.5431 32.976 31.0425 32.976C31.542 32.976 31.9728 33.0832 32.3351 33.2975C32.6995 33.5097 32.9803 33.8077 33.1775 34.1914C33.3747 34.5729 33.4733 35.0188 33.4733 35.529C33.4733 36.0348 33.3747 36.4796 33.1775 36.8633C32.9803 37.2448 32.6995 37.5428 32.3351 37.7571C31.9728 37.9694 31.542 38.0755 31.0425 38.0755ZM31.049 37.0144C31.2762 37.0144 31.4659 36.9501 31.6181 36.8215C31.7703 36.6907 31.885 36.5128 31.9621 36.2878C32.0414 36.0627 32.0811 35.8065 32.0811 35.5193C32.0811 35.2321 32.0414 34.9759 31.9621 34.7509C31.885 34.5258 31.7703 34.3479 31.6181 34.2171C31.4659 34.0864 31.2762 34.021 31.049 34.021C30.8196 34.021 30.6267 34.0864 30.4702 34.2171C30.3159 34.3479 30.1991 34.5258 30.1198 34.7509C30.0426 34.9759 30.004 35.2321 30.004 35.5193C30.004 35.8065 30.0426 36.0627 30.1198 36.2878C30.1991 36.5128 30.3159 36.6907 30.4702 36.8215C30.6267 36.9501 30.8196 37.0144 31.049 37.0144ZM34.3639 37.979V33.0403H35.7337V37.979H34.3639ZM35.052 32.4037C34.8484 32.4037 34.6737 32.3362 34.5279 32.2011C34.3843 32.0639 34.3125 31.9 34.3125 31.7092C34.3125 31.5206 34.3843 31.3587 34.5279 31.2237C34.6737 31.0865 34.8484 31.0179 35.052 31.0179C35.2557 31.0179 35.4293 31.0865 35.5729 31.2237C35.7187 31.3587 35.7915 31.5206 35.7915 31.7092C35.7915 31.9 35.7187 32.0639 35.5729 32.2011C35.4293 32.3362 35.2557 32.4037 35.052 32.4037ZM39.0623 38.0755C38.5564 38.0755 38.1213 37.9683 37.7569 37.7539C37.3946 37.5374 37.116 37.2373 36.9209 36.8537C36.728 36.47 36.6315 36.0284 36.6315 35.529C36.6315 35.0231 36.7291 34.5794 36.9241 34.1978C37.1213 33.8141 37.4011 33.5151 37.7633 33.3008C38.1256 33.0843 38.5564 32.976 39.0559 32.976C39.4867 32.976 39.864 33.0542 40.1876 33.2107C40.5113 33.3672 40.7675 33.5869 40.9561 33.8699C41.1447 34.1528 41.2487 34.4851 41.268 34.8666H39.9754C39.939 34.6201 39.8425 34.4218 39.6861 34.2718C39.5317 34.1196 39.3292 34.0435 39.0784 34.0435C38.8662 34.0435 38.6807 34.1014 38.5221 34.2171C38.3656 34.3307 38.2435 34.4968 38.1556 34.7155C38.0677 34.9341 38.0238 35.1988 38.0238 35.5097C38.0238 35.8248 38.0666 36.0927 38.1524 36.3135C38.2402 36.5343 38.3635 36.7025 38.5221 36.8183C38.6807 36.934 38.8662 36.9919 39.0784 36.9919C39.2348 36.9919 39.3752 36.9598 39.4996 36.8955C39.626 36.8311 39.73 36.7379 39.8115 36.6157C39.8951 36.4914 39.9497 36.3424 39.9754 36.1688H41.268C41.2465 36.5461 41.1437 36.8783 40.9593 37.1655C40.7771 37.4506 40.5253 37.6736 40.2037 37.8343C39.8822 37.9951 39.5017 38.0755 39.0623 38.0755ZM44.3957 38.0755C43.8876 38.0755 43.4504 37.9726 43.0838 37.7668C42.7194 37.5589 42.4386 37.2652 42.2414 36.8858C42.0442 36.5043 41.9456 36.053 41.9456 35.5322C41.9456 35.0241 42.0442 34.5783 42.2414 34.1946C42.4386 33.8109 42.7162 33.5119 43.0742 33.2975C43.4343 33.0832 43.8566 32.976 44.341 32.976C44.6668 32.976 44.9701 33.0285 45.2509 33.1336C45.5339 33.2364 45.7804 33.3919 45.9904 33.5998C46.2027 33.8077 46.3677 34.0692 46.4856 34.3843C46.6035 34.6973 46.6624 35.0638 46.6624 35.4839V35.8601H42.4922V35.0113H45.3731C45.3731 34.8141 45.3302 34.6394 45.2445 34.4872C45.1588 34.335 45.0398 34.216 44.8876 34.1303C44.7376 34.0424 44.5629 33.9985 44.3635 33.9985C44.1556 33.9985 43.9712 34.0467 43.8105 34.1432C43.6519 34.2375 43.5275 34.365 43.4375 34.5258C43.3475 34.6844 43.3014 34.8612 43.2992 35.0563V35.8633C43.2992 36.1077 43.3443 36.3188 43.4343 36.4968C43.5265 36.6747 43.6561 36.8119 43.8233 36.9083C43.9905 37.0048 44.1888 37.053 44.4182 37.053C44.5704 37.053 44.7097 37.0316 44.8362 36.9887C44.9626 36.9458 45.0709 36.8815 45.1609 36.7958C45.2509 36.71 45.3195 36.605 45.3667 36.4807L46.6335 36.5643C46.5692 36.8687 46.4374 37.1345 46.238 37.3617C46.0408 37.5867 45.7857 37.7625 45.4728 37.889C45.162 38.0133 44.8029 38.0755 44.3957 38.0755Z" fill="black"/>
<path d="M23.6652 63.46V63.0982L25.0237 61.6112C25.1831 61.437 25.3144 61.2856 25.4176 61.157C25.5207 61.0271 25.5971 60.9051 25.6466 60.7913C25.6976 60.6761 25.723 60.5555 25.723 60.4295C25.723 60.2849 25.6882 60.1596 25.6185 60.0538C25.5502 59.9479 25.4564 59.8662 25.3372 59.8086C25.2179 59.751 25.084 59.7222 24.9353 59.7222C24.7772 59.7222 24.6392 59.755 24.5213 59.8207C24.4047 59.885 24.3143 59.9754 24.25 60.0919C24.187 60.2085 24.1556 60.3451 24.1556 60.5019H23.6813C23.6813 60.2607 23.7369 60.0491 23.8481 59.8669C23.9593 59.6847 24.1107 59.5427 24.3023 59.4408C24.4952 59.339 24.7115 59.2881 24.9513 59.2881C25.1925 59.2881 25.4062 59.339 25.5924 59.4408C25.7786 59.5427 25.9246 59.68 26.0305 59.8528C26.1363 60.0256 26.1892 60.2179 26.1892 60.4295C26.1892 60.5809 26.1618 60.729 26.1068 60.8737C26.0532 61.017 25.9595 61.1771 25.8255 61.3539C25.6929 61.5294 25.5087 61.7438 25.2729 61.997L24.3485 62.9857V63.0179H26.2616V63.46H23.6652ZM28.4339 63.5162C28.1311 63.5162 27.8732 63.4338 27.6602 63.2691C27.4472 63.1029 27.2844 62.8625 27.1719 62.5476C27.0594 62.2315 27.0031 61.8496 27.0031 61.4022C27.0031 60.9574 27.0594 60.5776 27.1719 60.2628C27.2858 59.9466 27.4492 59.7054 27.6622 59.5393C27.8766 59.3719 28.1338 59.2881 28.4339 59.2881C28.734 59.2881 28.9906 59.3719 29.2036 59.5393C29.4179 59.7054 29.5814 59.9466 29.6939 60.2628C29.8078 60.5776 29.8647 60.9574 29.8647 61.4022C29.8647 61.8496 29.8084 62.2315 29.6959 62.5476C29.5834 62.8625 29.4206 63.1029 29.2076 63.2691C28.9946 63.4338 28.7367 63.5162 28.4339 63.5162ZM28.4339 63.0741C28.734 63.0741 28.9671 62.9294 29.1332 62.6401C29.2994 62.3507 29.3824 61.9381 29.3824 61.4022C29.3824 61.0458 29.3442 60.7424 29.2679 60.4918C29.1928 60.2413 29.0843 60.0504 28.9423 59.9191C28.8017 59.7878 28.6322 59.7222 28.4339 59.7222C28.1365 59.7222 27.9041 59.8689 27.7366 60.1623C27.5691 60.4543 27.4854 60.8676 27.4854 61.4022C27.4854 61.7585 27.5229 62.0613 27.5979 62.3105C27.673 62.5597 27.7808 62.7492 27.9215 62.8792C28.0635 63.0092 28.2343 63.0741 28.4339 63.0741ZM30.6283 63.46V63.0982L31.9868 61.6112C32.1462 61.437 32.2775 61.2856 32.3807 61.157C32.4838 61.0271 32.5602 60.9051 32.6098 60.7913C32.6607 60.6761 32.6861 60.5555 32.6861 60.4295C32.6861 60.2849 32.6513 60.1596 32.5816 60.0538C32.5133 59.9479 32.4195 59.8662 32.3003 59.8086C32.1811 59.751 32.0471 59.7222 31.8984 59.7222C31.7403 59.7222 31.6023 59.755 31.4844 59.8207C31.3679 59.885 31.2774 59.9754 31.2131 60.0919C31.1502 60.2085 31.1187 60.3451 31.1187 60.5019H30.6444C30.6444 60.2607 30.7 60.0491 30.8112 59.8669C30.9224 59.6847 31.0738 59.5427 31.2654 59.4408C31.4583 59.339 31.6747 59.2881 31.9145 59.2881C32.1556 59.2881 32.3693 59.339 32.5555 59.4408C32.7417 59.5427 32.8878 59.68 32.9936 59.8528C33.0994 60.0256 33.1523 60.2179 33.1523 60.4295C33.1523 60.5809 33.1249 60.729 33.07 60.8737C33.0164 61.017 32.9226 61.1771 32.7886 61.3539C32.656 61.5294 32.4718 61.7438 32.236 61.997L31.3116 62.9857V63.0179H33.2247V63.46H30.6283ZM33.8698 62.6159V62.206L35.6784 59.3444H35.9758V59.9794H35.7748L34.4083 62.1417V62.1738H36.8439V62.6159H33.8698ZM35.807 63.46V62.4914V62.3004V59.3444H36.2812V63.46H35.807Z" fill="black"/>
<rect width="59.9845" height="11.8837" transform="translate(0.147461 42.4419)" fill="#92ECD6"/>
<path d="M18.8145 50.8838V45.9451H22.1423V46.806H19.8586V47.9828H21.9711V48.8437H19.8586V50.0229H22.152V50.8838H18.8145ZM25.3285 49.3067V47.1798H26.3558V50.8838H25.3695V50.211H25.3309C25.2473 50.428 25.1082 50.6025 24.9137 50.7343C24.7208 50.8661 24.4853 50.932 24.2071 50.932C23.9596 50.932 23.7417 50.8758 23.5536 50.7632C23.3655 50.6507 23.2184 50.4907 23.1123 50.2833C23.0078 50.0759 22.9548 49.8276 22.9532 49.5382V47.1798H23.9805V49.3549C23.9821 49.5736 24.0407 49.7464 24.1565 49.8734C24.2722 50.0004 24.4274 50.0639 24.6219 50.0639C24.7457 50.0639 24.8614 50.0358 24.9692 49.9795C25.0769 49.9216 25.1637 49.8364 25.2296 49.7239C25.2971 49.6113 25.3301 49.4723 25.3285 49.3067ZM27.1775 50.8838V47.1798H28.1734V47.826H28.212C28.2795 47.5962 28.3928 47.4225 28.552 47.3052C28.7112 47.1862 28.8944 47.1267 29.1018 47.1267C29.1533 47.1267 29.2087 47.1299 29.2682 47.1364C29.3277 47.1428 29.3799 47.1516 29.4249 47.1629V48.0744C29.3767 48.06 29.31 48.0471 29.2248 48.0358C29.1396 48.0246 29.0616 48.019 28.9909 48.019C28.8398 48.019 28.7047 48.0519 28.5858 48.1178C28.4684 48.1821 28.3752 48.2722 28.306 48.3879C28.2385 48.5037 28.2047 48.6371 28.2047 48.7882V50.8838H27.1775ZM31.4572 50.9561C31.0826 50.9561 30.7587 50.8766 30.4854 50.7174C30.2137 50.5566 30.0039 50.3332 29.856 50.047C29.7081 49.7592 29.6341 49.4257 29.6341 49.0462C29.6341 48.6636 29.7081 48.3292 29.856 48.0431C30.0039 47.7553 30.2137 47.5318 30.4854 47.3727C30.7587 47.2119 31.0826 47.1315 31.4572 47.1315C31.8318 47.1315 32.1549 47.2119 32.4266 47.3727C32.6999 47.5318 32.9105 47.7553 33.0584 48.0431C33.2063 48.3292 33.2803 48.6636 33.2803 49.0462C33.2803 49.4257 33.2063 49.7592 33.0584 50.047C32.9105 50.3332 32.6999 50.5566 32.4266 50.7174C32.1549 50.8766 31.8318 50.9561 31.4572 50.9561ZM31.462 50.1603C31.6324 50.1603 31.7747 50.1121 31.8889 50.0157C32.003 49.9176 32.089 49.7842 32.1469 49.6154C32.2064 49.4466 32.2361 49.2544 32.2361 49.039C32.2361 48.8236 32.2064 48.6315 32.1469 48.4627C32.089 48.2939 32.003 48.1604 31.8889 48.0624C31.7747 47.9643 31.6324 47.9153 31.462 47.9153C31.29 47.9153 31.1453 47.9643 31.028 48.0624C30.9122 48.1604 30.8246 48.2939 30.7651 48.4627C30.7072 48.6315 30.6783 48.8236 30.6783 49.039C30.6783 49.2544 30.7072 49.4466 30.7651 49.6154C30.8246 49.7842 30.9122 49.9176 31.028 50.0157C31.1453 50.1121 31.29 50.1603 31.462 50.1603ZM33.9483 52.2728V47.1798H34.9611V47.8019H35.0069C35.0519 47.7023 35.117 47.601 35.2022 47.4981C35.289 47.3936 35.4016 47.3068 35.5398 47.2376C35.6797 47.1669 35.8533 47.1315 36.0607 47.1315C36.3308 47.1315 36.58 47.2023 36.8083 47.3438C37.0366 47.4836 37.219 47.695 37.3557 47.978C37.4923 48.2593 37.5606 48.6122 37.5606 49.0366C37.5606 49.4498 37.4939 49.7986 37.3605 50.0832C37.2287 50.3661 37.0486 50.5807 36.8203 50.727C36.5936 50.8717 36.3396 50.9441 36.0583 50.9441C35.859 50.9441 35.6893 50.9111 35.5495 50.8452C35.4112 50.7793 35.2979 50.6965 35.2095 50.5968C35.121 50.4955 35.0535 50.3935 35.0069 50.2906H34.9755V52.2728H33.9483ZM34.9538 49.0318C34.9538 49.252 34.9844 49.4441 35.0455 49.6081C35.1066 49.7721 35.195 49.8999 35.3107 49.9915C35.4265 50.0816 35.5672 50.1266 35.7328 50.1266C35.8999 50.1266 36.0414 50.0808 36.1572 49.9891C36.2729 49.8959 36.3605 49.7673 36.42 49.6033C36.4811 49.4377 36.5117 49.2472 36.5117 49.0318C36.5117 48.818 36.4819 48.6299 36.4224 48.4675C36.3629 48.3051 36.2753 48.1781 36.1596 48.0865C36.0438 47.9948 35.9016 47.949 35.7328 47.949C35.5656 47.949 35.4241 47.9932 35.3083 48.0817C35.1942 48.1701 35.1066 48.2955 35.0455 48.4579C34.9844 48.6202 34.9538 48.8115 34.9538 49.0318ZM39.9335 50.9561C39.5525 50.9561 39.2246 50.879 38.9497 50.7246C38.6764 50.5687 38.4657 50.3484 38.3178 50.0639C38.1699 49.7777 38.096 49.4393 38.096 49.0487C38.096 48.6676 38.1699 48.3333 38.3178 48.0455C38.4657 47.7577 38.6739 47.5335 38.9424 47.3727C39.2125 47.2119 39.5292 47.1315 39.8925 47.1315C40.1369 47.1315 40.3644 47.1709 40.575 47.2497C40.7872 47.3269 40.9721 47.4434 41.1296 47.5994C41.2888 47.7553 41.4126 47.9514 41.501 48.1878C41.5894 48.4225 41.6336 48.6974 41.6336 49.0125V49.2946H38.5059V48.658H40.6666C40.6666 48.5101 40.6345 48.3791 40.5702 48.2649C40.5059 48.1508 40.4166 48.0616 40.3025 47.9973C40.19 47.9313 40.0589 47.8984 39.9094 47.8984C39.7535 47.8984 39.6152 47.9346 39.4946 48.0069C39.3757 48.0776 39.2824 48.1733 39.2149 48.2939C39.1474 48.4128 39.1128 48.5455 39.1112 48.6918V49.297C39.1112 49.4803 39.145 49.6387 39.2125 49.7721C39.2816 49.9055 39.3789 50.0084 39.5043 50.0808C39.6297 50.1531 39.7784 50.1893 39.9504 50.1893C40.0646 50.1893 40.1691 50.1732 40.2639 50.1411C40.3588 50.1089 40.4399 50.0607 40.5075 49.9964C40.575 49.9321 40.6264 49.8533 40.6618 49.76L41.6119 49.8227C41.5637 50.051 41.4648 50.2504 41.3153 50.4208C41.1674 50.5896 40.9761 50.7214 40.7414 50.8163C40.5083 50.9095 40.239 50.9561 39.9335 50.9561Z" fill="black"/>
<path d="M23.3496 1.13184H36.931L36.8565 14.8053C36.8543 15.2111 36.635 15.5847 36.2818 15.7844L30.7358 18.92C30.385 19.1183 29.9552 19.1152 29.6073 18.9117L23.9844 15.6224C23.6393 15.4205 23.4263 15.0516 23.4241 14.6517L23.3496 1.13184Z" fill="#403BCB"/>
<path d="M31.9222 4.98779L31.3133 8.04056L28.3717 9.03888L26.04 6.98339L31.9222 4.98779Z" fill="white"/>
<path d="M28.9816 10.0962L28.3717 13.149L26.04 11.0935L28.9816 10.0962Z" fill="white"/>
<path d="M34.2535 7.04297L33.0358 13.1485L30.7041 11.093L31.313 8.04024L34.2535 7.04297Z" fill="white"/>
</svg>
