<svg width="58" height="73" viewBox="0 0 58 73" fill="none" xmlns="http://www.w3.org/2000/svg">
<path d="M2.55604 0.565892H55.7236C56.665 0.565892 57.4267 1.33192 57.4213 2.27332L57.1103 56.4173C57.1067 57.0393 56.7632 57.6096 56.215 57.9036L30.0834 71.9177C29.5746 72.1905 28.9621 72.1861 28.4573 71.9061L2.04298 57.2498C1.50667 56.9522 1.17257 56.3885 1.16901 55.7752L0.858397 2.27342C0.852931 1.33199 1.61459 0.565892 2.55604 0.565892Z" fill="white" stroke="#DCE5FF" stroke-width="1.13178"/>
<path d="M13.2088 32.0312V27.0926H15.1862C15.5495 27.0926 15.8526 27.1464 16.0953 27.2541C16.3381 27.3618 16.5206 27.5114 16.6427 27.7027C16.7649 27.8924 16.826 28.111 16.826 28.3586C16.826 28.5515 16.7874 28.7211 16.7103 28.8674C16.6331 29.0121 16.527 29.1311 16.3919 29.2243C16.2585 29.3159 16.1058 29.381 15.9338 29.4196V29.4679C16.1219 29.4759 16.2979 29.5289 16.4619 29.627C16.6275 29.7251 16.7617 29.8625 16.8646 30.0394C16.9675 30.2146 17.0189 30.4236 17.0189 30.6664C17.0189 30.9284 16.9538 31.1623 16.8236 31.3681C16.695 31.5723 16.5045 31.7338 16.2521 31.8528C15.9997 31.9718 15.6886 32.0312 15.3188 32.0312H13.2088ZM14.253 31.1776H15.1042C15.3952 31.1776 15.6074 31.1221 15.7409 31.0112C15.8743 30.8987 15.941 30.7492 15.941 30.5627C15.941 30.426 15.908 30.3054 15.8421 30.2009C15.7762 30.0964 15.6822 30.0145 15.56 29.955C15.4394 29.8955 15.2955 29.8658 15.1283 29.8658H14.253V31.1776ZM14.253 29.1592H15.0271C15.1701 29.1592 15.2971 29.1343 15.4081 29.0844C15.5206 29.033 15.609 28.9606 15.6733 28.8674C15.7392 28.7742 15.7722 28.6624 15.7722 28.5322C15.7722 28.3538 15.7087 28.2099 15.5817 28.1006C15.4563 27.9912 15.2779 27.9366 15.0463 27.9366H14.253V29.1592ZM19.3671 32.1036C18.9861 32.1036 18.6581 32.0264 18.3832 31.8721C18.1099 31.7162 17.8993 31.4959 17.7514 31.2114C17.6035 30.9252 17.5296 30.5868 17.5296 30.1961C17.5296 29.8151 17.6035 29.4807 17.7514 29.193C17.8993 28.9052 18.1075 28.6809 18.376 28.5202C18.6461 28.3594 18.9628 28.279 19.3261 28.279C19.5705 28.279 19.7979 28.3184 20.0086 28.3972C20.2208 28.4743 20.4056 28.5909 20.5632 28.7468C20.7223 28.9028 20.8461 29.0989 20.9346 29.3352C21.023 29.5699 21.0672 29.8449 21.0672 30.1599V30.4421H17.9395V29.8055H20.1002C20.1002 29.6576 20.068 29.5265 20.0037 29.4124C19.9394 29.2983 19.8502 29.209 19.7361 29.1447C19.6235 29.0788 19.4925 29.0459 19.343 29.0459C19.187 29.0459 19.0488 29.082 18.9282 29.1544C18.8092 29.2251 18.716 29.3208 18.6485 29.4413C18.581 29.5603 18.5464 29.6929 18.5448 29.8392V30.4445C18.5448 30.6278 18.5785 30.7861 18.6461 30.9196C18.7152 31.053 18.8125 31.1559 18.9379 31.2282C19.0633 31.3006 19.212 31.3367 19.384 31.3367C19.4981 31.3367 19.6026 31.3207 19.6975 31.2885C19.7923 31.2564 19.8735 31.2081 19.941 31.1438C20.0086 31.0795 20.06 31.0007 20.0954 30.9075L21.0455 30.9702C20.9973 31.1985 20.8984 31.3978 20.7489 31.5682C20.601 31.7371 20.4097 31.8689 20.1749 31.9637C19.9418 32.057 19.6726 32.1036 19.3671 32.1036ZM24.8194 29.3835L23.879 29.4413C23.8629 29.3609 23.8283 29.2886 23.7753 29.2243C23.7222 29.1584 23.6523 29.1061 23.5655 29.0676C23.4803 29.0274 23.3782 29.0073 23.2592 29.0073C23.1001 29.0073 22.9658 29.041 22.8565 29.1085C22.7472 29.1745 22.6925 29.2629 22.6925 29.3738C22.6925 29.4622 22.7279 29.537 22.7986 29.5981C22.8694 29.6592 22.9907 29.7082 23.1628 29.7452L23.8331 29.8802C24.1933 29.9542 24.4617 30.0731 24.6386 30.2371C24.8154 30.4011 24.9038 30.6165 24.9038 30.8834C24.9038 31.1261 24.8323 31.3392 24.6892 31.5224C24.5477 31.7057 24.3532 31.8488 24.1056 31.9517C23.8597 32.053 23.5759 32.1036 23.2544 32.1036C22.7641 32.1036 22.3734 32.0015 22.0824 31.7973C21.793 31.5916 21.6234 31.3118 21.5736 30.9581L22.584 30.9051C22.6145 31.0546 22.6885 31.1687 22.8059 31.2475C22.9232 31.3247 23.0735 31.3633 23.2568 31.3633C23.4369 31.3633 23.5815 31.3287 23.6909 31.2596C23.8018 31.1888 23.8581 31.098 23.8597 30.9871C23.8581 30.8938 23.8187 30.8175 23.7415 30.758C23.6643 30.6969 23.5454 30.6503 23.3846 30.6181L22.7432 30.4903C22.3814 30.418 22.1122 30.2926 21.9353 30.1141C21.7601 29.9357 21.6725 29.7082 21.6725 29.4317C21.6725 29.1938 21.7368 28.9888 21.8654 28.8168C21.9956 28.6447 22.1781 28.5121 22.4128 28.4189C22.6491 28.3256 22.9256 28.279 23.2423 28.279C23.7102 28.279 24.0783 28.3779 24.3468 28.5756C24.6169 28.7734 24.7744 29.0426 24.8194 29.3835ZM27.5209 28.3272V29.0989H25.2903V28.3272H27.5209ZM25.7967 27.4398H26.824V30.893C26.824 30.9879 26.8384 31.0618 26.8674 31.1149C26.8963 31.1663 26.9365 31.2025 26.9879 31.2234C27.041 31.2443 27.1021 31.2548 27.1712 31.2548C27.2194 31.2548 27.2677 31.2507 27.3159 31.2427C27.3641 31.2331 27.4011 31.2258 27.4268 31.221L27.5884 31.9854C27.537 32.0015 27.4646 32.02 27.3714 32.0409C27.2781 32.0634 27.1648 32.0771 27.0314 32.0819C26.7838 32.0915 26.5667 32.0586 26.3803 31.983C26.1954 31.9075 26.0515 31.7901 25.9486 31.6309C25.8457 31.4718 25.7951 31.2708 25.7967 31.0281V27.4398ZM29.8383 32.1036C29.4573 32.1036 29.1293 32.0264 28.8544 31.8721C28.5811 31.7162 28.3705 31.4959 28.2226 31.2114C28.0747 30.9252 28.0008 30.5868 28.0008 30.1961C28.0008 29.8151 28.0747 29.4807 28.2226 29.193C28.3705 28.9052 28.5787 28.6809 28.8472 28.5202C29.1173 28.3594 29.434 28.279 29.7973 28.279C30.0417 28.279 30.2692 28.3184 30.4798 28.3972C30.692 28.4743 30.8768 28.5909 31.0344 28.7468C31.1935 28.9028 31.3173 29.0989 31.4058 29.3352C31.4942 29.5699 31.5384 29.8449 31.5384 30.1599V30.4421H28.4107V29.8055H30.5714C30.5714 29.6576 30.5392 29.5265 30.4749 29.4124C30.4106 29.2983 30.3214 29.209 30.2073 29.1447C30.0947 29.0788 29.9637 29.0459 29.8142 29.0459C29.6582 29.0459 29.52 29.082 29.3994 29.1544C29.2804 29.2251 29.1872 29.3208 29.1197 29.4413C29.0522 29.5603 29.0176 29.6929 29.016 29.8392V30.4445C29.016 30.6278 29.0498 30.7861 29.1173 30.9196C29.1864 31.053 29.2837 31.1559 29.4091 31.2282C29.5345 31.3006 29.6832 31.3367 29.8552 31.3367C29.9693 31.3367 30.0738 31.3207 30.1687 31.2885C30.2635 31.2564 30.3447 31.2081 30.4122 31.1438C30.4798 31.0795 30.5312 31.0007 30.5666 30.9075L31.5167 30.9702C31.4685 31.1985 31.3696 31.3978 31.2201 31.5682C31.0722 31.7371 30.8809 31.8689 30.6461 31.9637C30.413 32.057 30.1438 32.1036 29.8383 32.1036ZM33.7467 32.0312V31.4115L36.2112 27.9535H33.7419V27.0926H37.5231V27.7123L35.0561 31.1704H37.5279V32.0312H33.7467ZM38.276 32.0312V31.4115L40.7406 27.9535H38.2712V27.0926H42.0524V27.7123L39.5855 31.1704H42.0572V32.0312H38.276ZM42.8584 32.0312V27.0926H44.8069C45.1815 27.0926 45.5006 27.1641 45.7643 27.3072C46.0279 27.4487 46.2289 27.6456 46.3671 27.898C46.507 28.1488 46.5769 28.4382 46.5769 28.7661C46.5769 29.0941 46.5062 29.3835 46.3647 29.6342C46.2232 29.885 46.0183 30.0804 45.7498 30.2202C45.4829 30.3601 45.1598 30.43 44.7804 30.43H43.5385V29.5933H44.6116C44.8125 29.5933 44.9781 29.5587 45.1083 29.4896C45.2402 29.4188 45.3382 29.3216 45.4025 29.1978C45.4684 29.0724 45.5014 28.9285 45.5014 28.7661C45.5014 28.6021 45.4684 28.4591 45.4025 28.3369C45.3382 28.2131 45.2402 28.1174 45.1083 28.0499C44.9765 27.9808 44.8093 27.9462 44.6067 27.9462H43.9026V32.0312H42.8584Z" fill="black"/>
<path d="M22.6662 63.46V63.0982L24.0247 61.6112C24.1841 61.437 24.3154 61.2856 24.4185 61.157C24.5217 61.0271 24.5981 60.9051 24.6476 60.7913C24.6985 60.6761 24.724 60.5555 24.724 60.4295C24.724 60.2849 24.6892 60.1596 24.6195 60.0538C24.5512 59.9479 24.4574 59.8662 24.3382 59.8086C24.2189 59.751 24.0849 59.7222 23.9362 59.7222C23.7782 59.7222 23.6402 59.755 23.5223 59.8207C23.4057 59.885 23.3153 59.9754 23.251 60.0919C23.188 60.2085 23.1565 60.3451 23.1565 60.5019H22.6823C22.6823 60.2607 22.7379 60.0491 22.8491 59.8669C22.9603 59.6847 23.1117 59.5427 23.3032 59.4408C23.4961 59.339 23.7125 59.2881 23.9523 59.2881C24.1935 59.2881 24.4071 59.339 24.5934 59.4408C24.7796 59.5427 24.9256 59.68 25.0314 59.8528C25.1373 60.0256 25.1902 60.2179 25.1902 60.4295C25.1902 60.5809 25.1627 60.729 25.1078 60.8737C25.0542 61.017 24.9604 61.1771 24.8265 61.3539C24.6938 61.5294 24.5096 61.7438 24.2738 61.997L23.3494 62.9857V63.0179H25.2625V63.46H22.6662ZM27.4349 63.5162C27.1321 63.5162 26.8742 63.4338 26.6612 63.2691C26.4482 63.1029 26.2854 62.8625 26.1729 62.5476C26.0603 62.2315 26.0041 61.8496 26.0041 61.4022C26.0041 60.9574 26.0603 60.5776 26.1729 60.2628C26.2868 59.9466 26.4502 59.7054 26.6632 59.5393C26.8776 59.3719 27.1348 59.2881 27.4349 59.2881C27.735 59.2881 27.9915 59.3719 28.2045 59.5393C28.4189 59.7054 28.5823 59.9466 28.6949 60.2628C28.8087 60.5776 28.8657 60.9574 28.8657 61.4022C28.8657 61.8496 28.8094 62.2315 28.6969 62.5476C28.5843 62.8625 28.4216 63.1029 28.2086 63.2691C27.9955 63.4338 27.7377 63.5162 27.4349 63.5162ZM27.4349 63.0741C27.735 63.0741 27.9681 62.9294 28.1342 62.6401C28.3003 62.3507 28.3834 61.9381 28.3834 61.4022C28.3834 61.0458 28.3452 60.7424 28.2688 60.4918C28.1938 60.2413 28.0853 60.0504 27.9433 59.9191C27.8026 59.7878 27.6332 59.7222 27.4349 59.7222C27.1375 59.7222 26.905 59.8689 26.7376 60.1623C26.5701 60.4543 26.4864 60.8676 26.4864 61.4022C26.4864 61.7585 26.5239 62.0613 26.5989 62.3105C26.6739 62.5597 26.7818 62.7492 26.9224 62.8792C27.0645 63.0092 27.2353 63.0741 27.4349 63.0741ZM29.6293 63.46V63.0982L30.9878 61.6112C31.1472 61.437 31.2785 61.2856 31.3817 61.157C31.4848 61.0271 31.5612 60.9051 31.6107 60.7913C31.6617 60.6761 31.6871 60.5555 31.6871 60.4295C31.6871 60.2849 31.6523 60.1596 31.5826 60.0538C31.5143 59.9479 31.4205 59.8662 31.3013 59.8086C31.182 59.751 31.0481 59.7222 30.8994 59.7222C30.7413 59.7222 30.6033 59.755 30.4854 59.8207C30.3688 59.885 30.2784 59.9754 30.2141 60.0919C30.1511 60.2085 30.1196 60.3451 30.1196 60.5019H29.6454C29.6454 60.2607 29.701 60.0491 29.8122 59.8669C29.9234 59.6847 30.0748 59.5427 30.2663 59.4408C30.4593 59.339 30.6756 59.2881 30.9154 59.2881C31.1566 59.2881 31.3703 59.339 31.5565 59.4408C31.7427 59.5427 31.8887 59.68 31.9946 59.8528C32.1004 60.0256 32.1533 60.2179 32.1533 60.4295C32.1533 60.5809 32.1259 60.729 32.0709 60.8737C32.0173 61.017 31.9236 61.1771 31.7896 61.3539C31.657 61.5294 31.4728 61.7438 31.237 61.997L30.3126 62.9857V63.0179H32.2257V63.46H29.6293ZM32.8707 62.6159V62.206L34.6793 59.3444H34.9768V59.9794H34.7758L33.4093 62.1417V62.1738H35.8449V62.6159H32.8707ZM34.8079 63.46V62.4914V62.3004V59.3444H35.2822V63.46H34.8079Z" fill="black"/>
<path d="M26.4653 46.1122L26.522 53.8254L26.7009 53.8237L26.7021 53.8237L32.7429 53.7495C33.3114 53.7425 33.8064 53.3594 33.9558 52.8108L35.5514 46.9491C35.7715 46.1406 35.1641 45.3436 34.3261 45.3415L30.8335 45.3326C30.9128 44.4017 30.9492 43.5424 30.8365 42.8666C30.7702 42.4693 30.6466 42.0945 30.4164 41.7991C30.1759 41.4903 29.8417 41.2979 29.4234 41.2393C28.8709 41.1619 28.461 41.5547 28.294 41.936L26.4653 46.1122Z" fill="#403BCB"/>
<path d="M25.5034 53.8349L25.4487 46.3864L24.7046 46.3946C24.0023 46.4023 23.4389 46.9772 23.4454 47.6795L23.4904 52.5801C23.4969 53.2833 24.0722 53.8481 24.7754 53.8416L25.5034 53.8349Z" fill="#403BCB"/>
<path d="M22.3486 1.13184H35.93L35.8555 14.8053C35.8533 15.2111 35.634 15.5847 35.2808 15.7844L29.7349 18.92C29.384 19.1183 28.9542 19.1152 28.6064 18.9117L22.9834 15.6224C22.6383 15.4205 22.4253 15.0516 22.4231 14.6517L22.3486 1.13184Z" fill="#403BCB"/>
<path d="M30.9212 4.98779L30.3123 8.04056L27.3707 9.03888L25.0391 6.98339L30.9212 4.98779Z" fill="white"/>
<path d="M27.9806 10.0957L27.3707 13.1485L25.0391 11.093L27.9806 10.0957Z" fill="white"/>
<path d="M33.2525 7.04297L32.0348 13.1485L29.7031 11.093L30.312 8.04024L33.2525 7.04297Z" fill="white"/>
</svg>
